<svg xmlns="http://www.w3.org/2000/svg" viewBox="0 0 128 128" role="img" aria-labelledby="title desc">
  <title id="title">OneHimachal mountain pin</title>
  <desc id="desc">A map pin with mountain and cedar shapes inspired by Himachal Pradesh.</desc>
  <defs>
    <linearGradient id="pinFill" x1="0" y1="0" x2="1" y2="1">
      <stop offset="0%" stop-color="#D42B2B"/>
      <stop offset="100%" stop-color="#1B7A3D"/>
    </linearGradient>
    <linearGradient id="mountainFill" x1="0" y1="0" x2="1" y2="1">
      <stop offset="0%" stop-color="#F8F5EE"/>
      <stop offset="100%" stop-color="#DCEBDD"/>
    </linearGradient>
  </defs>
  <path d="M64 10C39.7 10 20 29.5 20 53.6c0 30.8 35 59.5 41.1 64.2a4.9 4.9 0 0 0 5.9 0C73 113.1 108 84.4 108 53.6 108 29.5 88.3 10 64 10z" fill="url(#pinFill)"/>
  <circle cx="64" cy="53" r="28" fill="#13221A" opacity=".22"/>
  <circle cx="64" cy="50" r="30" fill="#FFF8F0"/>
  <path d="M38 68 56 38l10 15 9-11 15 26H38z" fill="url(#mountainFill)"/>
  <path d="m48 68 17-30 6 9-8 1-7 10-3 10H48z" fill="#1B7A3D" opacity=".9"/>
  <path d="m73 68 8-19 10 19H73z" fill="#1B7A3D" opacity=".82"/>
  <path d="M62 39l4 6-5 .8 5 5.7-6.5.5-7 11h-4L62 39z" fill="#FFF8F0" opacity=".9"/>
  <path d="M62 79c8 0 14.5-2 19.5-5.9-4.8 1.6-10.2 2.4-16 2.4-13.7 0-25.7-4.5-33.4-11.6 4.6 9.7 16 15.1 29.9 15.1z" fill="#1B7A3D" opacity=".14"/>
</svg>
